<?xml version="1.0" standalone="no"?>
<!DOCTYPE svg PUBLIC "-//W3C//DTD SVG 20010904//EN"
 "http://www.w3.org/TR/2001/REC-SVG-20010904/DTD/svg10.dtd">
<svg version="1.0" xmlns="http://www.w3.org/2000/svg"
 width="640.000000pt" height="640.000000pt" viewBox="0 0 640.000000 640.000000"
 preserveAspectRatio="xMidYMid meet">
<metadata>
Created by potrace 1.14, written by Peter Selinger 2001-2017
</metadata>
<g transform="translate(0.000000,640.000000) scale(0.100000,-0.100000)"
fill="#000000" stroke="none">
<path d="M4150 6215 l0 -105 280 0 c227 0 280 -3 280 -13 0 -18 -248 -331
-265 -335 -7 -2 -44 12 -82 31 -158 80 -423 171 -628 216 -233 51 -367 65
-650 65 -230 0 -292 -4 -415 -23 -369 -57 -634 -141 -953 -303 -1160 -590
-1809 -1879 -1592 -3164 107 -631 394 -1185 847 -1636 457 -454 1032 -741
1688 -843 143 -23 541 -31 706 -16 772 73 1487 443 1999 1036 674 781 896
1880 579 2866 -24 75 -44 139 -44 143 0 3 97 6 215 6 l215 0 0 150 0 150 -284
0 -283 0 -57 101 c-48 86 -54 103 -44 118 7 9 160 202 341 428 l327 411 0 141
0 141 -595 0 -595 0 0 -145 0 -145 366 0 c362 0 365 0 362 -20 -3 -19 -406
-539 -418 -539 -3 0 -21 21 -40 46 -59 79 -295 317 -401 405 -55 46 -151 118
-212 161 -62 43 -113 82 -115 87 -2 5 83 116 187 247 l191 238 0 102 0 103
-455 0 -455 0 0 -105z m-830 -425 c296 -27 586 -100 857 -217 61 -26 83 -40
78 -50 -6 -16 -15 -29 -110 -150 l-65 -82 0 -106 0 -105 428 0 428 0 110 -112
c143 -146 229 -254 217 -271 -5 -6 -57 -74 -116 -149 l-107 -136 0 -136 0
-136 280 0 280 0 16 -37 c43 -101 117 -348 143 -480 44 -220 55 -327 54 -553
0 -447 -88 -818 -289 -1220 -373 -744 -1057 -1272 -1873 -1444 -356 -76 -766
-76 -1122 0 -1018 215 -1817 981 -2080 1993 -146 564 -102 1179 125 1724 240
578 698 1076 1256 1366 340 176 645 263 1070 304 81 8 313 6 420 -3z m1257
-431 c35 -23 63 -43 63 -45 0 -2 -40 -4 -90 -4 -87 0 -90 1 -90 23 0 26 26 67
42 67 7 0 40 -19 75 -41z"/>
<path d="M3330 5510 l0 -80 180 0 180 0 0 -24 c0 -15 -64 -104 -190 -262
l-190 -239 0 -92 0 -93 315 0 316 0 -3 73 -3 72 -197 3 c-186 2 -198 4 -198
21 0 10 86 132 190 269 l190 251 0 91 0 90 -295 0 -295 0 0 -80z"/>
<path d="M3435 3400 c-28 -55 -20 -101 34 -182 194 -288 435 -442 696 -442
164 0 315 52 490 168 89 60 136 107 208 207 79 111 95 183 51 218 -39 30 -81
26 -175 -18 -235 -110 -497 -152 -727 -117 -165 25 -368 100 -461 170 -49 37
-96 35 -116 -4z"/>
<path d="M1216 3391 c-9 -10 -19 -40 -22 -67 -5 -46 -3 -53 47 -129 64 -96
201 -241 286 -301 141 -101 308 -152 462 -140 210 16 473 155 602 317 139 174
156 278 47 295 -27 5 -53 -3 -119 -34 -287 -135 -598 -167 -879 -90 -100 27
-242 89 -305 133 -57 39 -94 44 -119 16z"/>
<path d="M2963 2085 c-214 -60 -353 -246 -353 -471 0 -239 168 -435 406 -476
174 -29 359 55 466 210 77 112 100 279 58 415 -42 136 -155 257 -287 307 -75
29 -216 36 -290 15z"/>
</g>
</svg>
